<svg width="21" height="21" viewBox="0 0 21 21" fill="none" xmlns="http://www.w3.org/2000/svg">
<path d="M19.7882 15.0058L16.9942 12.2118C15.9963 11.214 14.3 11.6131 13.9009 12.9103C13.6015 13.8084 12.6037 14.3073 11.7056 14.1077C9.70991 13.6088 7.01573 11.0144 6.51681 8.91892C6.21745 8.02082 6.81616 7.02297 7.71422 6.72366C9.01142 6.32452 9.41056 4.62818 8.41271 3.63034L5.61875 0.836369C4.82047 0.137877 3.62306 0.137877 2.92456 0.836369L1.02866 2.73228C-0.867249 4.72797 1.22823 10.0165 5.9181 14.7064C10.608 19.3963 15.8966 21.5916 17.8922 19.5959L19.7882 17.7C20.4867 16.9017 20.4867 15.7043 19.7882 15.0058Z" fill="white"/>
</svg>
