<?xml version="1.0" encoding="utf-8"?><svg viewBox="0 0 182 55" xmlns="http://www.w3.org/2000/svg" xmlns:xlink="http://www.w3.org/1999/xlink"><style>:root>svg{display:none}:root>svg:target{display:block}</style><svg fill="none" viewBox="0 0 24 24" id="down-arrow" xmlns="http://www.w3.org/2000/svg"><path d="M23.616 6.097l-.786-.792a1.304 1.304 0 00-.928-.383c-.352 0-.681.136-.929.383l-8.968 8.969-8.978-8.979a1.303 1.303 0 00-.928-.383c-.352 0-.681.136-.929.383l-.786.787a1.314 1.314 0 000 1.857l10.69 10.728c.247.247.576.42.93.42h.005c.351 0 .68-.173.928-.42l10.68-10.7c.247-.246.383-.585.383-.937 0-.352-.136-.686-.384-.933z" fill="#6B5AF9"/></svg><svg fill="none" viewBox="0 0 182 55" id="logo" xmlns="http://www.w3.org/2000/svg"><path d="M16.944 36l-.024-8.904-4.32 7.248h-2.112l-4.32-7.056V36H1.8V19.2h3.912l5.904 9.696 5.76-9.696h3.912l.048 16.8h-4.392zM83.168 32.328V36H69.68V19.2h13.176v3.672h-8.472v2.832h7.464v3.552h-7.464v3.072h8.784zM103.469 19.2V36h-3.912l-7.416-8.952V36h-4.656V19.2h3.912l7.416 8.952V19.2h4.656zm21.016 0V36h-3.912l-7.416-8.952V36h-4.656V19.2h3.912l7.416 8.952V19.2h4.656zm5.032 0h4.752V36h-4.752V19.2zm17.565 17.136c-2.496 0-4.44-.68-5.832-2.04-1.376-1.36-2.064-3.288-2.064-5.784V19.2h4.752v9.168c0 2.688 1.064 4.032 3.192 4.032 2.112 0 3.168-1.344 3.168-4.032V19.2h4.68v9.312c0 2.496-.696 4.424-2.088 5.784-1.376 1.36-3.312 2.04-5.808 2.04zM175.045 36l-.048-8.904-4.32 7.248h-2.112l-4.296-7.008V36h-4.392V19.2h3.912l5.904 9.696 5.76-9.696h3.912l.048 16.8h-4.368z" fill="#2A2367"/><path fill="#6B5AF9" d="M28 19h7v17h-7zM42 7h7v41h-7zM56 0h7v55h-7z"/></svg><svg fill="none" viewBox="0 0 161 55" id="logo-footer" xmlns="http://www.w3.org/2000/svg"><path d="M16.944 36l-.024-8.904-4.32 7.248h-2.112l-4.32-7.056V36H1.8V19.2h3.912l5.904 9.696 5.76-9.696h3.912l.048 16.8h-4.392zM83.168 32.328V36H69.68V19.2h13.176v3.672h-8.472v2.832h7.464v3.552h-7.464v3.072h8.784zM103.469 19.2V36h-3.912l-7.416-8.952V36h-4.656V19.2h3.912l7.416 8.952V19.2h4.656zm5.032 0h4.752V36h-4.752V19.2zm17.565 17.136c-2.496 0-4.44-.68-5.832-2.04-1.376-1.36-2.064-3.288-2.064-5.784V19.2h4.752v9.168c0 2.688 1.064 4.032 3.192 4.032 2.112 0 3.168-1.344 3.168-4.032V19.2h4.68v9.312c0 2.496-.696 4.424-2.088 5.784-1.376 1.36-3.312 2.04-5.808 2.04zM154.029 36l-.048-8.904-4.32 7.248h-2.112l-4.296-7.008V36h-4.392V19.2h3.912l5.904 9.696 5.76-9.696h3.912l.048 16.8h-4.368z" fill="#fff"/><path fill="#6B5AF9" d="M28 19h7v17h-7zM42 7h7v41h-7zM56 0h7v55h-7z"/></svg><svg fill="none" viewBox="0 0 21 21" id="phone" xmlns="http://www.w3.org/2000/svg"><path d="M19.788 15.006l-2.794-2.794c-.998-.998-2.694-.599-3.093.698-.3.898-1.297 1.397-2.195 1.198-1.996-.5-4.69-3.094-5.19-5.19-.299-.897.3-1.895 1.198-2.194 1.297-.4 1.697-2.096.699-3.094L5.619.836C4.82.138 3.623.138 2.925.836L1.029 2.732c-1.896 1.996.2 7.285 4.89 11.974 4.689 4.69 9.978 6.886 11.973 4.89l1.896-1.896c.699-.798.699-1.996 0-2.694z" fill="#fff"/></svg><svg fill="none" viewBox="0 0 18 18" id="telegram" xmlns="http://www.w3.org/2000/svg"><path d="M9 18A9 9 0 109 0a9 9 0 000 18z" fill="#707070"/><path d="M4.118 8.805l8.678-3.346c.402-.145.754.099.624.708v-.001l-1.477 6.96c-.11.494-.403.614-.813.382l-2.25-1.659-1.085 1.046c-.12.12-.222.221-.454.221l.16-2.29 4.17-3.767c.181-.16-.04-.25-.28-.09l-5.153 3.244-2.222-.693c-.482-.153-.493-.482.102-.715z" fill="#fff"/></svg><svg fill="none" viewBox="0 0 35 35" id="telegram2" xmlns="http://www.w3.org/2000/svg"><path d="M17.5 35C27.165 35 35 27.165 35 17.5S27.165 0 17.5 0 0 7.835 0 17.5 7.835 35 17.5 35z" fill="#fff"/><path d="M8.008 17.12l16.873-6.505c.783-.283 1.467.19 1.213 1.375l.001-.002-2.873 13.535c-.213.96-.783 1.193-1.58.741l-4.375-3.224-2.11 2.033c-.234.233-.43.43-.883.43l.31-4.452 8.109-7.326c.353-.31-.079-.485-.544-.176l-10.02 6.309-4.32-1.348c-.937-.297-.958-.938.199-1.39z" fill="#2A2367"/></svg><svg fill="none" viewBox="0 0 18 18" id="whatsapp" xmlns="http://www.w3.org/2000/svg"><path d="M9.002 0h-.004C4.035 0 0 4.037 0 9c0 1.969.634 3.793 1.713 5.275L.592 17.62l3.46-1.106A8.922 8.922 0 009.001 18C13.965 18 18 13.962 18 9s-4.035-9-8.998-9z" fill="#707070"/><path d="M14.24 12.71c-.218.612-1.08 1.12-1.767 1.27-.47.1-1.085.18-3.152-.678-2.645-1.096-4.348-3.783-4.481-3.958C4.713 9.17 3.77 7.921 3.77 6.63c0-1.292.656-1.92.92-2.19.217-.222.576-.324.92-.324.112 0 .212.006.302.01.264.012.397.027.571.445.218.523.746 1.814.81 1.947.064.133.128.313.038.487-.085.18-.159.26-.292.413-.133.153-.258.27-.391.434-.122.143-.259.296-.106.56.153.26.682 1.122 1.46 1.815 1.005.895 1.82 1.18 2.11 1.302.218.09.477.069.635-.1.202-.217.45-.577.703-.932.18-.254.408-.285.646-.195.243.084 1.529.72 1.793.851.265.133.44.196.503.307.063.112.063.635-.154 1.25z" fill="#FAFAFA"/></svg><svg fill="none" viewBox="0 0 35 35" id="whatsapp2" xmlns="http://www.w3.org/2000/svg"><path d="M17.504 0h-.008C7.846 0 0 7.849 0 17.5a17.37 17.37 0 003.332 10.257L1.15 34.258l6.726-2.15A17.349 17.349 0 0017.504 35C27.154 35 35 27.15 35 17.5S27.153 0 17.504 0z" fill="#fff"/><path d="M27.687 24.712c-.422 1.192-2.098 2.181-3.434 2.47-.915.194-2.109.35-6.13-1.317-5.142-2.13-8.454-7.357-8.712-7.696-.248-.339-2.078-2.767-2.078-5.278 0-2.511 1.275-3.734 1.789-4.26.422-.43 1.12-.627 1.79-.627.216 0 .41.01.585.02.515.021.773.052 1.112.864.422 1.017 1.45 3.528 1.573 3.786.124.258.249.608.074.947-.164.35-.309.506-.567.803-.258.298-.503.525-.76.845-.237.277-.504.575-.207 1.089.298.503 1.326 2.18 2.84 3.528 1.953 1.74 3.537 2.295 4.104 2.531.422.175.925.134 1.233-.194.392-.422.875-1.122 1.368-1.812.35-.494.791-.555 1.255-.38.473.164 2.973 1.4 3.487 1.656.514.258.853.38.978.597.122.216.122 1.234-.3 2.428z" fill="#2A2367"/></svg></svg>